<?xml version="1.0" standalone="no"?>
<!DOCTYPE svg PUBLIC "-//W3C//DTD SVG 20010904//EN"
 "http://www.w3.org/TR/2001/REC-SVG-20010904/DTD/svg10.dtd">
<svg version="1.0" xmlns="http://www.w3.org/2000/svg"
 width="2400.000000pt" height="2400.000000pt" viewBox="0 0 2400.000000 2400.000000"
 preserveAspectRatio="xMidYMid meet">
<metadata>
Created by potrace 1.14, written by Peter Selinger 2001-2017
</metadata>
<g transform="translate(0.000000,2400.000000) scale(0.100000,-0.100000)"
fill="#000000" stroke="none">
<path d="M10462 23447 l-532 -532 444 -445 444 -445 122 -1090 c67 -599 123
-1092 126 -1094 3 -3 190 179 415 404 l411 410 -4 1218 -4 1218 -445 445 -444
444 -533 -533z"/>
<path d="M12554 23538 l-442 -443 -6 -1215 -6 -1215 415 -415 c267 -267 416
-409 419 -400 2 8 58 501 124 1094 l120 1079 444 444 443 443 -535 535 -535
535 -441 -442z"/>
<path d="M9225 22210 l-530 -530 442 -442 442 -443 257 -955 c141 -525 259
-958 263 -962 4 -4 192 178 419 405 l413 413 -142 1080 -142 1079 -441 443
c-242 243 -443 442 -446 442 -3 0 -244 -238 -535 -530z"/>
<path d="M13792 22297 l-442 -442 -140 -1059 c-77 -583 -140 -1069 -140 -1080
0 -14 133 -154 414 -435 406 -406 415 -414 422 -385 4 16 121 449 259 962
l252 934 442 442 441 441 -533 533 -532 532 -443 -443z"/>
<path d="M7985 20970 l-530 -530 444 -444 444 -444 393 -818 c216 -450 396
-820 401 -821 4 -2 193 183 419 409 l412 413 -279 940 -279 940 -442 442
c-244 244 -445 443 -448 443 -3 0 -244 -238 -535 -530z"/>
<path d="M15027 21062 l-439 -439 -279 -944 -280 -943 413 -413 c227 -227 415
-413 418 -413 3 0 182 370 399 823 l394 822 441 443 441 442 -530 530 c-291
292 -532 530 -535 530 -3 0 -202 -197 -443 -438z"/>
<path d="M6747 19732 l-527 -527 431 -430 430 -430 540 -697 c297 -384 543
-699 548 -702 4 -3 193 181 421 409 l413 413 -413 804 -414 803 -440 443
c-242 243 -445 442 -451 442 -5 0 -247 -237 -538 -528z"/>
<path d="M16263 19818 l-442 -443 -410 -797 c-226 -438 -411 -800 -411 -805 0
-4 186 -194 413 -421 l413 -413 523 678 524 678 451 453 451 452 -530 530
c-291 292 -532 530 -535 530 -3 0 -204 -199 -447 -442z"/>
<path d="M7333 15858 c-2897 -2898 -3626 -3633 -3646 -3673 -52 -104 -56 -200
-15 -315 19 -52 217 -252 4067 -4103 3725 -3726 4051 -4050 4111 -4080 58 -29
73 -32 155 -32 77 0 99 5 150 28 56 26 376 343 4107 4075 2732 2732 4053 4060
4066 4088 11 22 26 68 33 101 15 72 3 156 -32 231 -17 37 -783 808 -3648 3675
l-3626 3627 -1050 0 -1050 0 -3622 -3622z m4211 -1223 c-261 -743 -478 -1353
-482 -1356 -4 -4 -1589 -298 -3522 -653 -1933 -356 -3524 -649 -3535 -652 -11
-2 1787 900 3995 2005 2208 1105 4016 2008 4017 2007 1 -1 -212 -609 -473
-1351z m4436 -786 c0 -6 -145 -564 -321 -1241 -177 -676 -320 -1230 -318
-1232 2 -2 1057 135 2344 305 1287 170 2347 308 2356 306 9 -1 -1766 -914
-3944 -2029 -2178 -1115 -3962 -2026 -3965 -2024 -2 2 196 667 441 1478 297
984 440 1474 432 1476 -7 2 -1161 -299 -2566 -667 -1404 -369 -2554 -669
-2556 -667 -3 3 633 2225 639 2231 4 5 7430 2073 7446 2074 6 1 12 -4 12 -10z"/>
<path d="M5512 18497 l-532 -532 452 -451 453 -451 657 -542 c361 -297 661
-541 665 -541 4 0 193 186 420 413 l412 412 -554 670 -554 670 -443 442 -443
443 -533 -533z"/>
<path d="M17503 18588 l-441 -443 -552 -669 -551 -670 413 -413 c227 -227 416
-413 419 -413 3 0 302 245 665 544 l659 545 447 448 448 448 -533 533 -532
532 -442 -442z"/>
<path d="M4275 17260 l-530 -530 450 -449 450 -449 799 -411 800 -412 413 413
c227 227 412 416 411 420 -2 3 -307 241 -678 528 l-675 521 -450 450 c-248
247 -452 449 -455 449 -3 0 -244 -239 -535 -530z"/>
<path d="M18750 17355 l-435 -436 -692 -536 c-381 -294 -693 -538 -693 -542 0
-3 186 -192 413 -418 l412 -412 805 415 805 415 443 442 442 442 -533 533
-532 532 -435 -435z"/>
<path d="M3035 16020 l-530 -530 443 -443 443 -444 937 -277 c515 -152 942
-276 947 -276 6 0 196 186 423 413 l413 413 -829 398 -829 398 -439 439 c-241
242 -441 439 -444 439 -3 0 -244 -238 -535 -530z"/>
<path d="M19970 16106 l-445 -444 -715 -343 c-393 -188 -762 -364 -819 -392
l-104 -49 414 -414 c363 -364 417 -414 439 -410 14 3 437 127 940 276 l915
270 445 445 445 445 -530 530 c-291 291 -532 530 -535 530 -3 0 -205 -200
-450 -444z"/>
<path d="M1802 14787 l-532 -532 445 -445 445 -444 1077 -143 1078 -142 415
414 c228 228 412 416 410 418 -3 2 -435 120 -960 261 l-955 257 -445 445 -445
444 -533 -533z"/>
<path d="M21217 14872 l-438 -438 -960 -259 c-527 -142 -959 -261 -959 -264 0
-4 186 -191 413 -418 l412 -412 1078 143 1078 142 442 442 442 442 -530 530
c-291 291 -532 530 -535 530 -3 0 -202 -197 -443 -438z"/>
<path d="M562 13547 l-532 -532 442 -442 443 -443 1220 -6 1220 -6 414 414
413 415 -38 6 c-22 3 -516 58 -1099 123 l-1060 117 -445 444 -445 443 -533
-533z"/>
<path d="M22452 13637 l-443 -443 -1062 -118 c-584 -65 -1077 -121 -1095 -124
l-34 -5 414 -415 413 -414 1215 6 1215 6 443 443 442 442 -533 533 -532 532
-443 -443z"/>
<path d="M20230 11527 c-268 -269 -409 -418 -400 -421 8 -2 506 -59 1105 -126
l1090 -121 445 -444 445 -445 535 535 535 535 -445 445 -445 445 -1225 6
-1225 6 -415 -415z"/>
<path d="M1550 11903 l-625 -3 -445 -445 -445 -445 533 -532 532 -533 442 442
443 443 1090 121 c600 66 1097 123 1105 125 9 3 -135 153 -400 419 l-415 415
-595 -2 c-327 -2 -876 -4 -1220 -5z"/>
<path d="M19260 10555 c-228 -228 -412 -416 -410 -418 3 -2 437 -120 965 -262
l960 -258 448 -446 447 -446 535 535 535 535 -447 447 -448 447 -1070 140
c-588 78 -1077 141 -1085 141 -8 0 -202 -187 -430 -415z"/>
<path d="M3215 10799 l-1050 -140 -445 -444 -445 -445 535 -535 535 -535 445
445 446 446 944 254 c520 141 953 258 964 261 15 5 -62 87 -395 420 -392 392
-416 414 -449 413 -19 0 -507 -64 -1085 -140z"/>
<path d="M18290 9585 c-228 -228 -412 -416 -410 -418 3 -2 374 -181 825 -397
l820 -392 450 -449 450 -449 535 535 535 535 -448 448 -448 448 -937 277
c-515 153 -942 277 -947 277 -6 0 -197 -187 -425 -415z"/>
<path d="M4345 9699 l-940 -280 -445 -444 -445 -445 535 -535 535 -535 450
449 450 448 810 388 c446 213 814 391 820 396 6 6 -146 165 -405 424 -228 228
-417 415 -420 414 -3 -1 -428 -127 -945 -280z"/>
<path d="M17320 8615 c-255 -255 -411 -418 -405 -423 6 -5 309 -240 675 -522
l665 -513 463 -461 462 -461 538 538 537 537 -445 444 -445 444 -807 416
c-443 229 -810 416 -815 416 -4 0 -195 -187 -423 -415z"/>
<path d="M5450 8594 l-805 -416 -445 -444 -445 -444 535 -535 535 -535 455
454 455 454 670 517 c369 285 674 521 680 526 6 6 -145 164 -405 424 -228 228
-417 415 -420 415 -3 -1 -367 -188 -810 -416z"/>
<path d="M16350 7645 c-386 -386 -413 -415 -399 -432 9 -10 257 -310 552 -668
l536 -650 450 -450 451 -450 535 535 535 535 -433 433 -432 434 -683 564
c-376 310 -686 564 -690 564 -4 0 -194 -187 -422 -415z"/>
<path d="M6538 7476 l-683 -565 -430 -430 -430 -431 535 -535 535 -535 433
433 434 432 565 684 565 684 -413 413 c-228 228 -417 414 -421 414 -3 0 -314
-254 -690 -564z"/>
<path d="M15381 6676 l-414 -414 417 -809 416 -808 448 -448 447 -447 535 535
535 535 -456 457 -456 458 -522 678 c-288 372 -526 677 -529 677 -4 0 -193
-186 -421 -414z"/>
<path d="M7675 6407 l-510 -662 -465 -468 -465 -467 535 -535 535 -535 446
447 447 448 411 798 c226 438 411 803 411 810 0 15 -811 827 -825 827 -6 -1
-239 -299 -520 -663z"/>
<path d="M14411 5706 l-414 -414 278 -944 279 -943 448 -450 448 -450 535 535
535 535 -444 445 -445 445 -397 828 c-218 455 -400 827 -403 827 -3 0 -192
-186 -420 -414z"/>
<path d="M9082 5950 c-43 -91 -222 -464 -397 -830 l-318 -665 -444 -445 -443
-445 533 -533 532 -532 447 447 446 448 276 935 c152 514 276 940 276 945 0 6
-187 197 -415 425 l-414 414 -79 -164z"/>
<path d="M13442 4737 l-414 -414 144 -1086 143 -1087 445 -445 445 -445 535
535 535 535 -443 443 -443 443 -255 944 c-140 520 -257 955 -260 968 -4 12 -9
22 -13 22 -3 0 -192 -186 -419 -413z"/>
<path d="M10046 4848 c-44 -161 -161 -596 -261 -966 l-182 -674 -441 -441
-442 -442 533 -533 532 -532 446 447 446 448 142 1080 142 1079 -413 413
c-227 227 -415 413 -418 413 -3 0 -41 -132 -84 -292z"/>
<path d="M12471 3766 l-413 -413 7 -1226 8 -1225 443 -443 444 -444 537 538
538 537 -447 447 -446 448 -121 1085 c-67 597 -121 1091 -121 1098 0 6 -3 12
-8 12 -4 0 -193 -186 -421 -414z"/>
<path d="M11090 4163 c0 -5 -54 -498 -121 -1098 l-121 -1090 -444 -445 -444
-445 535 -535 535 -535 443 443 442 442 6 1223 6 1222 -411 413 c-226 226
-414 412 -418 412 -5 0 -8 -3 -8 -7z"/>
</g>
</svg>
